<svg xmlns="http://www.w3.org/2000/svg" viewBox="0 0 68 60" role="img" aria-label="">
  <!-- iOS home screen: light background ’ dark mark -->
  <path
    fill="#1a1a1a"
    d="M63.3629 0H12.2177C8.25192 0 5.71245 4.17581 7.56817 7.6473L12.684 17.2423H3.40955C2.8222 17.2425 2.24486 17.3929 1.73344 17.679C1.22202 17.965 0.793851 18.3771 0.490412 18.8752C0.186973 19.3733 0.0185464 19.9405 0.0014461 20.522C-0.0156542 21.1035 0.11915 21.6795 0.392804 22.1942L16.8481 53.0422C17.1382 53.5847 17.5721 54.0387 18.1032 54.3553C18.6342 54.6719 19.2423 54.8392 19.8621 54.8392C20.482 54.8392 21.0901 54.6719 21.6211 54.3553C22.1522 54.0387 22.5861 53.5847 22.8762 53.0422L27.3452 44.7095L32.952 55.2228C34.9253 58.9205 40.271 58.9273 42.2511 55.2337L67.8866 7.45361C69.6986 4.07423 67.2261 0 63.3629 0ZM40.3886 20.4145L29.3349 41.0213C29.1417 41.3821 28.853 41.6839 28.4997 41.8944C28.1463 42.105 27.7418 42.2162 27.3295 42.2162C26.9171 42.2162 26.5126 42.105 26.1593 41.8944C25.806 41.6839 25.5172 41.3821 25.324 41.0213L14.377 20.5012C14.1941 20.159 14.1034 19.7759 14.1138 19.3889C14.1242 19.0019 14.2353 18.6241 14.4364 18.2921C14.6375 17.9601 14.9218 17.6851 15.2616 17.4938C15.6015 17.3026 15.9855 17.2015 16.3763 17.2003H38.4385C38.8196 17.2003 39.1942 17.298 39.5259 17.4839C39.8576 17.6698 40.1351 17.9375 40.3314 18.2611C40.5277 18.5846 40.6362 18.953 40.6462 19.3303C40.6562 19.7077 40.5674 20.0812 40.3886 20.4145Z"
  />
</svg>
