<svg width="569" height="316" viewBox="0 0 569 316" fill="none" xmlns="http://www.w3.org/2000/svg">
<path d="M492.422 136V0H568.222V28.6H525.022V53.2H561.222V80.2H525.022V107.4H568.822V136H492.422Z" fill="white"/>
<path d="M386.555 136V0H419.155V136H386.555ZM445.555 136L421.955 73.6H453.955L481.355 136H445.555ZM395.755 87.4V64.2H424.755C427.688 64.2 430.221 64 432.355 63.6C434.488 63.0667 436.288 62.3333 437.755 61.4C439.355 60.3333 440.621 59 441.555 57.4C442.488 55.8 443.155 53.9333 443.555 51.8C444.088 49.6667 444.355 47.2 444.355 44.4C444.355 41.7333 444.088 39.3333 443.555 37.2C443.155 35.0667 442.488 33.2667 441.555 31.8C440.621 30.2 439.355 28.9333 437.755 28C436.288 27.0667 434.488 26.3333 432.355 25.8C430.221 25.2667 427.688 25 424.755 25H395.755V0H428.755C435.288 0 441.155 0.666666 446.355 2C451.688 3.2 456.288 5.06667 460.155 7.6C464.155 10 467.421 13 469.955 16.6C472.621 20.0667 474.621 24.0667 475.955 28.6C477.288 33.1333 477.955 38.0667 477.955 43.4C477.955 49 477.355 54.1333 476.155 58.8C475.088 63.3333 473.355 67.4 470.955 71C468.555 74.6 465.555 77.6 461.955 80C458.355 82.4 454.155 84.2667 449.355 85.6C444.688 86.8 439.421 87.4 433.555 87.4H395.755Z" fill="white"/>
<path d="M320.972 138C312.172 138 304.439 136.467 297.772 133.4C291.239 130.333 286.172 125.8 282.572 119.8C278.972 113.667 277.172 106.133 277.172 97.2V0H312.572V98C312.572 101.067 313.039 103.6 313.972 105.6C315.039 107.467 316.505 108.867 318.372 109.8C320.239 110.733 322.505 111.2 325.172 111.2C329.039 111.2 332.039 110.133 334.172 108C336.305 105.867 337.372 102.533 337.372 98V0H368.172V97.2C368.172 106.133 366.239 113.667 362.372 119.8C358.505 125.8 352.972 130.333 345.772 133.4C338.705 136.467 330.439 138 320.972 138Z" fill="white"/>
<path d="M208.822 136V0H241.422V136H208.822ZM182.822 28.6V0H267.622V28.6H182.822Z" fill="white"/>
<path d="M125.839 138C117.039 138 109.306 136.467 102.639 133.4C96.1057 130.333 91.0391 125.8 87.4391 119.8C83.8391 113.667 82.0391 106.133 82.0391 97.2V0H117.439V98C117.439 101.067 117.906 103.6 118.839 105.6C119.906 107.467 121.372 108.867 123.239 109.8C125.106 110.733 127.372 111.2 130.039 111.2C133.906 111.2 136.906 110.133 139.039 108C141.172 105.867 142.239 102.533 142.239 98V0H173.039V97.2C173.039 106.133 171.106 113.667 167.239 119.8C163.372 125.8 157.839 130.333 150.639 133.4C143.572 136.467 135.306 138 125.839 138Z" fill="white"/>
<path d="M0 136V0H32.6V136H0ZM16 85V58H66.8V85H16ZM16 28.6V0H71.8V28.6H16Z" fill="white"/>
<path d="M482.344 312.655V158.717H568.142V191.089H519.244V218.934H560.218V249.495H519.244V280.282H568.821V312.655H482.344Z" fill="white"/>
<path d="M362.513 312.655V158.717H399.413V312.655H362.513ZM429.295 312.655L402.582 242.024H438.803L469.817 312.655H429.295ZM372.927 257.644V231.384H405.752C409.072 231.384 411.939 231.158 414.354 230.705C416.769 230.102 418.806 229.272 420.466 228.215C422.277 227.008 423.711 225.499 424.768 223.688C425.824 221.876 426.579 219.764 427.031 217.349C427.635 214.934 427.937 212.142 427.937 208.973C427.937 205.954 427.635 203.238 427.031 200.823C426.579 198.408 425.824 196.371 424.768 194.711C423.711 192.9 422.277 191.466 420.466 190.41C418.806 189.353 416.769 188.523 414.354 187.92C411.939 187.316 409.072 187.014 405.752 187.014H372.927V158.717H410.279C417.674 158.717 424.315 159.471 430.201 160.98C436.238 162.339 441.444 164.451 445.821 167.319C450.348 170.036 454.046 173.431 456.914 177.506C459.932 181.43 462.196 185.958 463.705 191.089C465.214 196.22 465.969 201.804 465.969 207.841C465.969 214.18 465.29 219.99 463.931 225.272C462.724 230.403 460.762 235.007 458.045 239.081C455.329 243.156 451.933 246.552 447.858 249.268C443.783 251.985 439.03 254.098 433.596 255.607C428.314 256.965 422.353 257.644 415.712 257.644H372.927Z" fill="white"/>
<path d="M128.058 312.655V158.717H164.958V312.655H128.058ZM98.6289 191.089V158.717H194.614V191.089H98.6289Z" fill="white"/>
<path d="M48.0718 315.371C37.2056 315.371 28.1504 313.711 20.9063 310.391C13.6621 306.92 8.22901 301.336 4.60693 293.639C1.13578 285.942 -0.373421 275.679 0.0793388 262.851L35.1682 257.644C34.7154 265.492 35.0173 271.605 36.0737 275.981C37.1302 280.358 38.7903 283.376 41.0541 285.036C43.3179 286.697 45.959 287.527 48.9774 287.527C53.354 287.527 56.5234 286.017 58.4853 282.999C60.4473 279.981 61.4282 275.453 61.4282 269.416C61.4282 265.794 60.9 262.851 59.8436 260.587C58.9381 258.173 57.5043 256.211 55.5424 254.702C53.7313 253.041 51.3921 251.683 48.5246 250.627C45.808 249.419 42.5633 248.212 38.7903 247.005C33.9608 245.495 29.2823 243.76 24.7547 241.798C20.3781 239.685 16.4541 236.968 12.983 233.648C9.51183 230.328 6.71981 226.027 4.60693 220.745C2.64498 215.462 1.664 208.973 1.664 201.276C1.664 191.617 3.55049 183.467 7.32349 176.827C11.0965 170.036 16.4541 164.904 23.3965 161.433C30.4897 157.811 39.0167 156 48.9774 156C58.4853 156 66.7104 157.736 73.6528 161.207C80.746 164.527 86.1036 169.583 89.7257 176.374C93.3478 183.015 95.0079 191.391 94.7061 201.502L62.1074 209.878C62.5601 202.332 62.1828 196.673 60.9755 192.9C59.7681 189.127 58.108 186.637 55.9951 185.429C53.8823 184.071 51.543 183.392 48.9774 183.392C46.7136 183.392 44.6761 183.996 42.8651 185.203C41.0541 186.259 39.6203 187.995 38.5639 190.41C37.6584 192.674 37.2056 195.616 37.2056 199.239C37.2056 202.71 37.6584 205.577 38.5639 207.841C39.4694 210.105 40.7522 211.991 42.4124 213.5C44.2234 214.859 46.4872 216.066 49.2037 217.123C52.0712 218.179 55.316 219.235 58.9381 220.292C64.5221 221.65 69.6534 223.386 74.3319 225.499C79.1613 227.461 83.3116 230.102 86.7828 233.422C90.2539 236.591 92.895 240.817 94.7061 246.099C96.668 251.23 97.649 257.645 97.649 265.341C97.649 276.057 95.7625 285.187 91.9895 292.733C88.3674 300.128 82.8589 305.788 75.4638 309.712C68.2196 313.485 59.089 315.371 48.0718 315.371Z" fill="white"/>
<path d="M270.372 315.824C246.952 315.824 227.496 308.452 212.1 293.733C196.897 278.797 189.333 259.582 189.333 235.921C189.333 212.259 196.922 193.045 212.1 178.543C227.52 163.824 246.903 156.453 270.372 156.453C293.84 156.453 313.248 163.824 328.643 178.543C344.039 193.045 351.628 212.259 351.628 235.921C351.628 259.582 344.039 278.797 328.643 293.733C313.223 308.452 293.84 315.824 270.372 315.824ZM270.299 176.078C239.338 176.078 212.003 196.888 212.003 235.848C212.003 279.256 243.713 296.174 270.299 296.174C305.272 296.174 329.151 271.304 329.151 235.848C329.151 193.045 297.296 176.078 270.299 176.078Z" fill="white"/>
</svg>
