<svg width="569" height="392" viewBox="0 0 569 392" fill="none" xmlns="http://www.w3.org/2000/svg">
<path d="M117.761 22.1657H112.166V41.1566C112.166 41.3297 112.097 41.4955 111.973 41.6179C111.849 41.7402 111.682 41.8091 111.507 41.8095H107.193C107.018 41.8091 106.851 41.7402 106.727 41.6179C106.604 41.4955 106.534 41.3297 106.534 41.1566V22.1657H100.906C100.822 22.1691 100.737 22.1557 100.658 22.1261C100.578 22.0966 100.506 22.0516 100.444 21.9937C100.383 21.9358 100.334 21.8663 100.3 21.7893C100.266 21.7123 100.248 21.6293 100.247 21.5453V18.1863C100.248 18.1023 100.266 18.0193 100.3 17.9423C100.334 17.8653 100.383 17.7957 100.444 17.7379C100.506 17.68 100.578 17.635 100.658 17.6054C100.737 17.5759 100.822 17.5625 100.906 17.5659H117.76C117.934 17.5578 118.105 17.6185 118.235 17.7347C118.364 17.851 118.442 18.0133 118.452 18.1863V21.5467C118.442 21.7192 118.364 21.8809 118.235 21.9968C118.105 22.1128 117.935 22.1734 117.761 22.1657Z" fill="white"/>
<path d="M135.722 41.6735C134.569 41.836 132.63 42.0974 129.073 42.0974C124.824 42.0974 121.071 41.0206 121.071 35.084V24.2483C121.071 18.3117 124.859 17.2674 129.106 17.2674C132.662 17.2674 134.569 17.5288 135.722 17.6913C136.183 17.7563 136.381 17.9202 136.381 18.3442V21.3822C136.381 21.5553 136.311 21.7211 136.188 21.8435C136.064 21.9658 135.897 22.0347 135.722 22.0351H128.778C127.23 22.0351 126.671 22.5566 126.671 24.2537V27.2227H135.46C135.634 27.2231 135.802 27.292 135.925 27.4143C136.049 27.5367 136.118 27.7025 136.119 27.8756V30.9746C136.118 31.1476 136.049 31.3135 135.925 31.4358C135.802 31.5582 135.634 31.6271 135.46 31.6274H126.671V35.0854C126.671 36.7812 127.23 37.304 128.778 37.304H135.722C135.897 37.3043 136.064 37.3732 136.188 37.4956C136.311 37.6179 136.381 37.7838 136.381 37.9568V40.9908C136.381 41.4121 136.183 41.6085 135.722 41.6735Z" fill="white"/>
<path d="M160.572 41.8025H155.336C154.908 41.8025 154.709 41.6671 154.48 41.3135L149.94 34.1742L145.826 41.1564C145.595 41.5479 145.365 41.8093 145.006 41.8093H140.132C139.802 41.8093 139.638 41.6129 139.638 41.3853C139.644 41.3055 139.667 41.2277 139.704 41.1564L146.838 29.3726L139.63 18.1834C139.593 18.1236 139.571 18.0565 139.564 17.987C139.576 17.8671 139.634 17.7563 139.726 17.6774C139.817 17.5985 139.936 17.5576 140.058 17.563H145.36C145.722 17.563 145.986 17.8894 146.18 18.1834L150.394 24.7728L154.471 18.1834C154.636 17.8894 154.932 17.563 155.292 17.563H160.166C160.287 17.5576 160.406 17.5985 160.498 17.6774C160.59 17.7563 160.648 17.8671 160.659 17.987C160.653 18.0565 160.63 18.1236 160.594 18.1834L153.421 29.4417L160.902 41.1564C160.96 41.256 160.994 41.3679 161 41.4828C161.001 41.6725 160.836 41.8025 160.572 41.8025Z" fill="white"/>
<path d="M92.3575 17.6312C92.2399 17.6315 92.126 17.6722 92.0353 17.7462C91.9445 17.8203 91.8825 17.9233 91.8597 18.0375L87.0789 35.563C87.0132 35.9219 86.9148 36.0519 86.618 36.0519C86.3213 36.0519 86.2228 35.9165 86.1572 35.563L81.3709 18.0335C81.3481 17.9192 81.2861 17.8163 81.1953 17.7422C81.1046 17.6681 80.9907 17.6274 80.8731 17.6271H76.1675C76.0909 17.6272 76.0154 17.6444 75.9465 17.6774C75.8776 17.7104 75.8171 17.7584 75.7696 17.8177C75.722 17.8771 75.6885 17.9463 75.6717 18.0203C75.6549 18.0942 75.6551 18.1709 75.6724 18.2448C75.6724 18.2448 81.5117 38.3437 81.576 38.5414C82.3555 40.9361 84.2468 42.0806 86.6536 42.0806C88.9455 42.0806 90.9462 40.8819 91.7284 38.5482C91.8214 38.2773 97.5308 18.2434 97.5308 18.2434C97.5479 18.1697 97.5479 18.0931 97.531 18.0193C97.5141 17.9455 97.4806 17.8765 97.433 17.8173C97.3855 17.7581 97.3251 17.7103 97.2563 17.6773C97.1875 17.6444 97.1122 17.6273 97.0358 17.6271L92.3575 17.6312Z" fill="white"/>
<path d="M63.3629 0H12.2177C8.25192 0 5.71245 4.17581 7.56817 7.6473L12.684 17.2423H3.40955C2.8222 17.2425 2.24486 17.3929 1.73344 17.679C1.22202 17.965 0.793851 18.3771 0.490412 18.8752C0.186973 19.3733 0.0185464 19.9405 0.0014461 20.522C-0.0156542 21.1035 0.11915 21.6795 0.392804 22.1942L16.8481 53.0422C17.1382 53.5847 17.5721 54.0387 18.1032 54.3553C18.6342 54.6719 19.2423 54.8392 19.8621 54.8392C20.482 54.8392 21.0901 54.6719 21.6211 54.3553C22.1522 54.0387 22.5861 53.5847 22.8762 53.0422L27.3452 44.7095L32.952 55.2228C34.9253 58.9205 40.271 58.9273 42.2511 55.2337L67.8866 7.45361C69.6986 4.07423 67.2261 0 63.3629 0ZM40.3886 20.4145L29.3349 41.0213C29.1417 41.3821 28.853 41.6839 28.4997 41.8944C28.1463 42.105 27.7418 42.2162 27.3295 42.2162C26.9171 42.2162 26.5126 42.105 26.1593 41.8944C25.806 41.6839 25.5172 41.3821 25.324 41.0213L14.377 20.5012C14.1941 20.159 14.1034 19.7759 14.1138 19.3889C14.1242 19.0019 14.2353 18.6241 14.4364 18.2921C14.6375 17.9601 14.9218 17.6851 15.2616 17.4938C15.6015 17.3026 15.9855 17.2015 16.3763 17.2003H38.4385C38.8196 17.2003 39.1942 17.298 39.5259 17.4839C39.8576 17.6698 40.1351 17.9375 40.3314 18.2611C40.5277 18.5846 40.6362 18.953 40.6462 19.3303C40.6562 19.7077 40.5674 20.0812 40.3886 20.4145Z" fill="white"/>
<path d="M492.422 212V76H568.222V104.6H525.022V129.2H561.222V156.2H525.022V183.4H568.822V212H492.422Z" fill="white"/>
<path d="M386.555 212V76H419.155V212H386.555ZM445.555 212L421.955 149.6H453.955L481.355 212H445.555ZM395.755 163.4V140.2H424.755C427.688 140.2 430.221 140 432.355 139.6C434.488 139.067 436.288 138.333 437.755 137.4C439.355 136.333 440.621 135 441.555 133.4C442.488 131.8 443.155 129.933 443.555 127.8C444.088 125.667 444.355 123.2 444.355 120.4C444.355 117.733 444.088 115.333 443.555 113.2C443.155 111.067 442.488 109.267 441.555 107.8C440.621 106.2 439.355 104.933 437.755 104C436.288 103.067 434.488 102.333 432.355 101.8C430.221 101.267 427.688 101 424.755 101H395.755V76H428.755C435.288 76 441.155 76.6667 446.355 78C451.688 79.2 456.288 81.0667 460.155 83.6C464.155 86 467.421 89 469.955 92.6C472.621 96.0667 474.621 100.067 475.955 104.6C477.288 109.133 477.955 114.067 477.955 119.4C477.955 125 477.355 130.133 476.155 134.8C475.088 139.333 473.355 143.4 470.955 147C468.555 150.6 465.555 153.6 461.955 156C458.355 158.4 454.155 160.267 449.355 161.6C444.688 162.8 439.421 163.4 433.555 163.4H395.755Z" fill="white"/>
<path d="M320.972 214C312.172 214 304.439 212.467 297.772 209.4C291.239 206.333 286.172 201.8 282.572 195.8C278.972 189.667 277.172 182.133 277.172 173.2V76H312.572V174C312.572 177.067 313.039 179.6 313.972 181.6C315.039 183.467 316.505 184.867 318.372 185.8C320.239 186.733 322.505 187.2 325.172 187.2C329.039 187.2 332.039 186.133 334.172 184C336.305 181.867 337.372 178.533 337.372 174V76H368.172V173.2C368.172 182.133 366.239 189.667 362.372 195.8C358.505 201.8 352.972 206.333 345.772 209.4C338.705 212.467 330.439 214 320.972 214Z" fill="white"/>
<path d="M208.822 212V76H241.422V212H208.822ZM182.822 104.6V76H267.622V104.6H182.822Z" fill="white"/>
<path d="M125.839 214C117.039 214 109.306 212.467 102.639 209.4C96.1057 206.333 91.0391 201.8 87.4391 195.8C83.8391 189.667 82.0391 182.133 82.0391 173.2V76H117.439V174C117.439 177.067 117.906 179.6 118.839 181.6C119.906 183.467 121.372 184.867 123.239 185.8C125.106 186.733 127.372 187.2 130.039 187.2C133.906 187.2 136.906 186.133 139.039 184C141.172 181.867 142.239 178.533 142.239 174V76H173.039V173.2C173.039 182.133 171.106 189.667 167.239 195.8C163.372 201.8 157.839 206.333 150.639 209.4C143.572 212.467 135.306 214 125.839 214Z" fill="white"/>
<path d="M0 212V76H32.6V212H0ZM16 161V134H66.8V161H16ZM16 104.6V76H71.8V104.6H16Z" fill="white"/>
<path d="M482.344 388.655V234.717H568.142V267.089H519.244V294.934H560.218V325.495H519.244V356.282H568.821V388.655H482.344Z" fill="white"/>
<path d="M362.513 388.655V234.717H399.413V388.655H362.513ZM429.295 388.655L402.582 318.024H438.803L469.817 388.655H429.295ZM372.927 333.644V307.384H405.752C409.072 307.384 411.939 307.158 414.354 306.705C416.769 306.102 418.806 305.272 420.466 304.215C422.277 303.008 423.711 301.499 424.768 299.688C425.824 297.876 426.579 295.764 427.031 293.349C427.635 290.934 427.937 288.142 427.937 284.973C427.937 281.954 427.635 279.238 427.031 276.823C426.579 274.408 425.824 272.371 424.768 270.711C423.711 268.9 422.277 267.466 420.466 266.41C418.806 265.353 416.769 264.523 414.354 263.92C411.939 263.316 409.072 263.014 405.752 263.014H372.927V234.717H410.279C417.674 234.717 424.315 235.471 430.201 236.98C436.238 238.339 441.444 240.451 445.821 243.319C450.348 246.036 454.046 249.431 456.914 253.506C459.932 257.43 462.196 261.958 463.705 267.089C465.214 272.22 465.969 277.804 465.969 283.841C465.969 290.18 465.29 295.99 463.931 301.272C462.724 306.403 460.762 311.007 458.045 315.081C455.329 319.156 451.933 322.552 447.858 325.268C443.783 327.985 439.03 330.098 433.596 331.607C428.314 332.965 422.353 333.644 415.712 333.644H372.927Z" fill="white"/>
<path d="M128.058 388.655V234.717H164.958V388.655H128.058ZM98.6289 267.089V234.717H194.614V267.089H98.6289Z" fill="white"/>
<path d="M48.0718 391.371C37.2056 391.371 28.1504 389.711 20.9063 386.391C13.6621 382.92 8.22901 377.336 4.60693 369.639C1.13578 361.942 -0.373421 351.679 0.0793388 338.851L35.1682 333.644C34.7154 341.492 35.0173 347.605 36.0737 351.981C37.1302 356.358 38.7903 359.376 41.0541 361.036C43.3179 362.697 45.959 363.527 48.9774 363.527C53.354 363.527 56.5234 362.017 58.4853 358.999C60.4473 355.981 61.4282 351.453 61.4282 345.416C61.4282 341.794 60.9 338.851 59.8436 336.587C58.9381 334.173 57.5043 332.211 55.5424 330.702C53.7313 329.041 51.3921 327.683 48.5246 326.627C45.808 325.419 42.5633 324.212 38.7903 323.005C33.9608 321.495 29.2823 319.76 24.7547 317.798C20.3781 315.685 16.4541 312.968 12.983 309.648C9.51183 306.328 6.71981 302.027 4.60693 296.745C2.64498 291.462 1.664 284.973 1.664 277.276C1.664 267.617 3.55049 259.467 7.32349 252.827C11.0965 246.036 16.4541 240.904 23.3965 237.433C30.4897 233.811 39.0167 232 48.9774 232C58.4853 232 66.7104 233.736 73.6528 237.207C80.746 240.527 86.1036 245.583 89.7257 252.374C93.3478 259.015 95.0079 267.391 94.7061 277.502L62.1074 285.878C62.5601 278.332 62.1828 272.673 60.9755 268.9C59.7681 265.127 58.108 262.637 55.9951 261.429C53.8823 260.071 51.543 259.392 48.9774 259.392C46.7136 259.392 44.6761 259.996 42.8651 261.203C41.0541 262.259 39.6203 263.995 38.5639 266.41C37.6584 268.674 37.2056 271.616 37.2056 275.239C37.2056 278.71 37.6584 281.577 38.5639 283.841C39.4694 286.105 40.7522 287.991 42.4124 289.5C44.2234 290.859 46.4872 292.066 49.2037 293.123C52.0712 294.179 55.316 295.235 58.9381 296.292C64.5221 297.65 69.6534 299.386 74.3319 301.499C79.1613 303.461 83.3116 306.102 86.7828 309.422C90.2539 312.591 92.895 316.817 94.7061 322.099C96.668 327.23 97.649 333.645 97.649 341.341C97.649 352.057 95.7625 361.187 91.9895 368.733C88.3674 376.128 82.8589 381.788 75.4638 385.712C68.2196 389.485 59.089 391.371 48.0718 391.371Z" fill="white"/>
<path d="M270.372 391.824C246.952 391.824 227.496 384.452 212.1 369.733C196.897 354.797 189.333 335.582 189.333 311.921C189.333 288.259 196.922 269.045 212.1 254.543C227.52 239.824 246.903 232.453 270.372 232.453C293.84 232.453 313.248 239.824 328.643 254.543C344.039 269.045 351.628 288.259 351.628 311.921C351.628 335.582 344.039 354.797 328.643 369.733C313.223 384.452 293.84 391.824 270.372 391.824ZM270.299 252.078C239.338 252.078 212.003 272.888 212.003 311.848C212.003 355.256 243.713 372.174 270.299 372.174C305.272 372.174 329.151 347.304 329.151 311.848C329.151 269.045 297.296 252.078 270.299 252.078Z" fill="white"/>
</svg>
