<svg width="569" height="414" viewBox="0 0 569 414" fill="none" xmlns="http://www.w3.org/2000/svg">
<path d="M162.429 30.5733H154.712V56.7678C154.712 57.0064 154.616 57.2352 154.445 57.4039C154.275 57.5727 154.044 57.6677 153.803 57.6682H147.852C147.611 57.6677 147.38 57.5727 147.21 57.4039C147.039 57.2352 146.943 57.0064 146.943 56.7678V30.5733H139.181C139.064 30.5781 138.948 30.5596 138.838 30.5188C138.729 30.4781 138.628 30.4159 138.544 30.3361C138.459 30.2563 138.391 30.1605 138.344 30.0542C138.298 29.948 138.273 29.8335 138.272 29.7177V25.0845C138.273 24.9686 138.298 24.8542 138.344 24.748C138.391 24.6417 138.459 24.5459 138.544 24.4661C138.628 24.3862 138.729 24.3241 138.838 24.2834C138.948 24.2426 139.064 24.2241 139.181 24.2288H162.427C162.668 24.2177 162.904 24.3014 163.082 24.4617C163.261 24.622 163.369 24.8459 163.381 25.0845V29.7196C163.368 29.9575 163.261 30.1806 163.082 30.3405C162.904 30.5004 162.669 30.584 162.429 30.5733Z" fill="white"/>
<path d="M187.203 57.4807C185.613 57.7049 182.938 58.0654 178.032 58.0654C172.172 58.0654 166.994 56.5802 166.994 48.3917V33.4459C166.994 25.2575 172.219 23.8171 178.077 23.8171C182.982 23.8171 185.613 24.1777 187.203 24.4018C187.839 24.4915 188.112 24.7176 188.112 25.3023V29.4928C188.112 29.7314 188.016 29.9602 187.845 30.129C187.675 30.2977 187.444 30.3928 187.203 30.3932H177.625C175.489 30.3932 174.718 31.1125 174.718 33.4534V37.5486H186.841C187.082 37.549 187.313 37.6441 187.483 37.8128C187.654 37.9816 187.75 38.2104 187.75 38.449V42.7235C187.75 42.9622 187.654 43.191 187.483 43.3597C187.313 43.5285 187.082 43.6235 186.841 43.624H174.718V48.3936C174.718 50.7326 175.489 51.4538 177.625 51.4538H187.203C187.444 51.4543 187.675 51.5493 187.845 51.7181C188.016 51.8868 188.112 52.1156 188.112 52.3543V56.5391C188.112 57.1201 187.839 57.391 187.203 57.4807Z" fill="white"/>
<path d="M221.479 57.6586H214.256C213.666 57.6586 213.392 57.4718 213.075 56.9842L206.813 47.1368L201.139 56.7675C200.821 57.3074 200.504 57.668 200.008 57.668H193.285C192.831 57.668 192.604 57.3971 192.604 57.0832C192.613 56.9731 192.644 56.8658 192.695 56.7675L202.535 40.5139L192.593 25.0805C192.542 24.9981 192.512 24.9055 192.502 24.8096C192.519 24.6443 192.598 24.4915 192.725 24.3827C192.852 24.2739 193.016 24.2174 193.183 24.2248H200.496C200.996 24.2248 201.36 24.6751 201.628 25.0805L207.439 34.1694L213.064 25.0805C213.29 24.6751 213.7 24.2248 214.196 24.2248H220.918C221.086 24.2174 221.25 24.2739 221.377 24.3827C221.503 24.4915 221.583 24.6443 221.599 24.8096C221.59 24.9055 221.559 24.9981 221.509 25.0805L211.615 40.6092L221.933 56.7675C222.014 56.9048 222.06 57.0591 222.069 57.2177C222.071 57.4793 221.843 57.6586 221.479 57.6586Z" fill="white"/>
<path d="M127.39 24.3189C127.227 24.3193 127.07 24.3754 126.945 24.4776C126.82 24.5798 126.734 24.7217 126.703 24.8794L120.109 49.0524C120.018 49.5474 119.882 49.7268 119.473 49.7268C119.064 49.7268 118.928 49.54 118.837 49.0524L112.236 24.8738C112.204 24.7161 112.119 24.5742 111.994 24.472C111.868 24.3698 111.711 24.3137 111.549 24.3133H105.059C104.953 24.3134 104.849 24.3371 104.754 24.3826C104.659 24.4281 104.575 24.4943 104.51 24.5762C104.444 24.658 104.398 24.7535 104.375 24.8555C104.352 24.9575 104.352 25.0634 104.376 25.1652C104.376 25.1652 112.43 52.8878 112.519 53.1606C113.594 56.4636 116.202 58.0423 119.522 58.0423C122.684 58.0423 125.443 56.3889 126.522 53.1699C126.65 52.7963 134.525 25.1633 134.525 25.1633C134.549 25.0616 134.549 24.956 134.525 24.8542C134.502 24.7525 134.456 24.6572 134.39 24.5756C134.325 24.4939 134.241 24.428 134.147 24.3825C134.052 24.3371 133.948 24.3135 133.842 24.3133L127.39 24.3189Z" fill="white"/>
<path d="M87.397 0H16.852C11.382 0 7.87923 5.75974 10.4388 10.548L17.4952 23.7825H4.70282C3.89269 23.7828 3.09636 23.9902 2.39095 24.3848C1.68554 24.7794 1.09497 25.3477 0.676431 26.0347C0.257894 26.7217 0.0255812 27.5042 0.00199463 28.3062C-0.021592 29.1083 0.164345 29.9028 0.541799 30.6127L23.2388 73.1616C23.6389 73.9099 24.2374 74.5361 24.9699 74.9728C25.7023 75.4095 26.5411 75.6403 27.3961 75.6403C28.251 75.6403 29.0898 75.4095 29.8223 74.9728C30.5547 74.5361 31.1532 73.9099 31.5533 73.1616L37.7175 61.6683L45.451 76.1694C48.1729 81.2697 55.5462 81.279 58.2774 76.1844L93.6367 10.2808C96.1359 5.61962 92.7256 0 87.397 0ZM55.7084 28.1579L40.462 56.5811C40.1955 57.0787 39.7972 57.4951 39.3099 57.7854C38.8225 58.0758 38.2645 58.2292 37.6958 58.2292C37.1271 58.2292 36.5691 58.0758 36.0818 57.7854C35.5944 57.4951 35.1961 57.0787 34.9297 56.5811L19.8304 28.2775C19.578 27.8056 19.453 27.2771 19.4673 26.7433C19.4817 26.2095 19.6349 25.6883 19.9123 25.2304C20.1897 24.7725 20.5817 24.3933 21.0505 24.1294C21.5193 23.8656 22.0489 23.7262 22.5881 23.7246H53.0186C53.5443 23.7246 54.061 23.8594 54.5185 24.1158C54.976 24.3721 55.3588 24.7414 55.6296 25.1877C55.9003 25.634 56.0499 26.1421 56.0637 26.6625C56.0775 27.183 55.9551 27.6982 55.7084 28.1579Z" fill="white"/>
<path d="M492.422 234V98H568.222V126.6H525.022V151.2H561.222V178.2H525.022V205.4H568.822V234H492.422Z" fill="white"/>
<path d="M386.555 234V98H419.155V234H386.555ZM445.555 234L421.955 171.6H453.955L481.355 234H445.555ZM395.755 185.4V162.2H424.755C427.688 162.2 430.221 162 432.355 161.6C434.488 161.067 436.288 160.333 437.755 159.4C439.355 158.333 440.621 157 441.555 155.4C442.488 153.8 443.155 151.933 443.555 149.8C444.088 147.667 444.355 145.2 444.355 142.4C444.355 139.733 444.088 137.333 443.555 135.2C443.155 133.067 442.488 131.267 441.555 129.8C440.621 128.2 439.355 126.933 437.755 126C436.288 125.067 434.488 124.333 432.355 123.8C430.221 123.267 427.688 123 424.755 123H395.755V98H428.755C435.288 98 441.155 98.6667 446.355 100C451.688 101.2 456.288 103.067 460.155 105.6C464.155 108 467.421 111 469.955 114.6C472.621 118.067 474.621 122.067 475.955 126.6C477.288 131.133 477.955 136.067 477.955 141.4C477.955 147 477.355 152.133 476.155 156.8C475.088 161.333 473.355 165.4 470.955 169C468.555 172.6 465.555 175.6 461.955 178C458.355 180.4 454.155 182.267 449.355 183.6C444.688 184.8 439.421 185.4 433.555 185.4H395.755Z" fill="white"/>
<path d="M320.972 236C312.172 236 304.439 234.467 297.772 231.4C291.239 228.333 286.172 223.8 282.572 217.8C278.972 211.667 277.172 204.133 277.172 195.2V98H312.572V196C312.572 199.067 313.039 201.6 313.972 203.6C315.039 205.467 316.505 206.867 318.372 207.8C320.239 208.733 322.505 209.2 325.172 209.2C329.039 209.2 332.039 208.133 334.172 206C336.305 203.867 337.372 200.533 337.372 196V98H368.172V195.2C368.172 204.133 366.239 211.667 362.372 217.8C358.505 223.8 352.972 228.333 345.772 231.4C338.705 234.467 330.439 236 320.972 236Z" fill="white"/>
<path d="M208.822 234V98H241.422V234H208.822ZM182.822 126.6V98H267.622V126.6H182.822Z" fill="white"/>
<path d="M125.839 236C117.039 236 109.306 234.467 102.639 231.4C96.1057 228.333 91.0391 223.8 87.4391 217.8C83.8391 211.667 82.0391 204.133 82.0391 195.2V98H117.439V196C117.439 199.067 117.906 201.6 118.839 203.6C119.906 205.467 121.372 206.867 123.239 207.8C125.106 208.733 127.372 209.2 130.039 209.2C133.906 209.2 136.906 208.133 139.039 206C141.172 203.867 142.239 200.533 142.239 196V98H173.039V195.2C173.039 204.133 171.106 211.667 167.239 217.8C163.372 223.8 157.839 228.333 150.639 231.4C143.572 234.467 135.306 236 125.839 236Z" fill="white"/>
<path d="M0 234V98H32.6V234H0ZM16 183V156H66.8V183H16ZM16 126.6V98H71.8V126.6H16Z" fill="white"/>
<path d="M482.344 410.655V256.717H568.142V289.089H519.244V316.934H560.218V347.495H519.244V378.282H568.821V410.655H482.344Z" fill="white"/>
<path d="M362.513 410.655V256.717H399.413V410.655H362.513ZM429.295 410.655L402.582 340.024H438.803L469.817 410.655H429.295ZM372.927 355.644V329.384H405.752C409.072 329.384 411.939 329.158 414.354 328.705C416.769 328.102 418.806 327.272 420.466 326.215C422.277 325.008 423.711 323.499 424.768 321.688C425.824 319.876 426.579 317.764 427.031 315.349C427.635 312.934 427.937 310.142 427.937 306.973C427.937 303.954 427.635 301.238 427.031 298.823C426.579 296.408 425.824 294.371 424.768 292.711C423.711 290.9 422.277 289.466 420.466 288.41C418.806 287.353 416.769 286.523 414.354 285.92C411.939 285.316 409.072 285.014 405.752 285.014H372.927V256.717H410.279C417.674 256.717 424.315 257.471 430.201 258.98C436.238 260.339 441.444 262.451 445.821 265.319C450.348 268.036 454.046 271.431 456.914 275.506C459.932 279.43 462.196 283.958 463.705 289.089C465.214 294.22 465.969 299.804 465.969 305.841C465.969 312.18 465.29 317.99 463.931 323.272C462.724 328.403 460.762 333.007 458.045 337.081C455.329 341.156 451.933 344.552 447.858 347.268C443.783 349.985 439.03 352.098 433.596 353.607C428.314 354.965 422.353 355.644 415.712 355.644H372.927Z" fill="white"/>
<path d="M128.058 410.655V256.717H164.958V410.655H128.058ZM98.6289 289.089V256.717H194.614V289.089H98.6289Z" fill="white"/>
<path d="M48.0718 413.371C37.2056 413.371 28.1504 411.711 20.9063 408.391C13.6621 404.92 8.22901 399.336 4.60693 391.639C1.13578 383.942 -0.373421 373.679 0.0793388 360.851L35.1682 355.644C34.7154 363.492 35.0173 369.605 36.0737 373.981C37.1302 378.358 38.7903 381.376 41.0541 383.036C43.3179 384.697 45.959 385.527 48.9774 385.527C53.354 385.527 56.5234 384.017 58.4853 380.999C60.4473 377.981 61.4282 373.453 61.4282 367.416C61.4282 363.794 60.9 360.851 59.8436 358.587C58.9381 356.173 57.5043 354.211 55.5424 352.702C53.7313 351.041 51.3921 349.683 48.5246 348.627C45.808 347.419 42.5633 346.212 38.7903 345.005C33.9608 343.495 29.2823 341.76 24.7547 339.798C20.3781 337.685 16.4541 334.968 12.983 331.648C9.51183 328.328 6.71981 324.027 4.60693 318.745C2.64498 313.462 1.664 306.973 1.664 299.276C1.664 289.617 3.55049 281.467 7.32349 274.827C11.0965 268.036 16.4541 262.904 23.3965 259.433C30.4897 255.811 39.0167 254 48.9774 254C58.4853 254 66.7104 255.736 73.6528 259.207C80.746 262.527 86.1036 267.583 89.7257 274.374C93.3478 281.015 95.0079 289.391 94.7061 299.502L62.1074 307.878C62.5601 300.332 62.1828 294.673 60.9755 290.9C59.7681 287.127 58.108 284.637 55.9951 283.429C53.8823 282.071 51.543 281.392 48.9774 281.392C46.7136 281.392 44.6761 281.996 42.8651 283.203C41.0541 284.259 39.6203 285.995 38.5639 288.41C37.6584 290.674 37.2056 293.616 37.2056 297.239C37.2056 300.71 37.6584 303.577 38.5639 305.841C39.4694 308.105 40.7522 309.991 42.4124 311.5C44.2234 312.859 46.4872 314.066 49.2037 315.123C52.0712 316.179 55.316 317.235 58.9381 318.292C64.5221 319.65 69.6534 321.386 74.3319 323.499C79.1613 325.461 83.3116 328.102 86.7828 331.422C90.2539 334.591 92.895 338.817 94.7061 344.099C96.668 349.23 97.649 355.645 97.649 363.341C97.649 374.057 95.7625 383.187 91.9895 390.733C88.3674 398.128 82.8589 403.788 75.4638 407.712C68.2196 411.485 59.089 413.371 48.0718 413.371Z" fill="white"/>
<path d="M270.372 413.824C246.952 413.824 227.496 406.452 212.1 391.733C196.897 376.797 189.333 357.582 189.333 333.921C189.333 310.259 196.922 291.045 212.1 276.543C227.52 261.824 246.903 254.453 270.372 254.453C293.84 254.453 313.248 261.824 328.643 276.543C344.039 291.045 351.628 310.259 351.628 333.921C351.628 357.582 344.039 376.797 328.643 391.733C313.223 406.452 293.84 413.824 270.372 413.824ZM270.299 274.078C239.338 274.078 212.003 294.888 212.003 333.848C212.003 377.256 243.713 394.174 270.299 394.174C305.272 394.174 329.151 369.304 329.151 333.848C329.151 291.045 297.296 274.078 270.299 274.078Z" fill="white"/>
</svg>
